<?xml version="1.0" encoding="utf-8"?>
<!-- Generator: Adobe Illustrator 22.0.1, SVG Export Plug-In . SVG Version: 6.00 Build 0)  -->
<svg version="1.1" id="Layer_1" xmlns="http://www.w3.org/2000/svg" xmlns:xlink="http://www.w3.org/1999/xlink" x="0px" y="0px"
	 viewBox="0 0 300 300" style="enable-background:new 0 0 300 300;" xml:space="preserve">
<style type="text/css">
	.st0{fill:#FC4A1A;}
	.st1{fill:#FFFFFF;}
</style>
<path id="mountain" class="st0" d="M170.6,132L119,200.6c-0.8,1-2.3,1-2.8,0l-18-24.5c-0.8-1-2.3-1-2.8,0l-56.2,77.1
	c-1,1.5,1.3,3.3,2.6,2c17.3-15,48.5-42.3,54.4-47.3c0.5-0.5,1.3-0.5,2.1-0.3c1.8,1,5.4,2.8,9.8,5c0.8,0.5,1,1.5,0.5,2.3l-62.5,82.7
	c-1,1.5,1,3.3,2.6,2c30.4-23.5,121.9-93.9,132.8-102.7c0.5-0.5,1.5-0.5,2.1,0c8,5.3,54.7,36.3,74.5,49.6c1.5,1,3.6-0.8,2.6-2
	L173.5,132C173,131.2,171.4,131.2,170.6,132z"/>
<path class="st0" d="M204.6,12.7c-1.7-0.2-2.3-0.1-2.8-0.3c-20.2-9.4-41.1-9-62.3-4.4c-25.6,5.6-48.2,16.6-67,34.7
	c-6.2,6-12.6,11.7-20.5,15.5c-1,0.5-1.9,1.3-3.4,0.8c2.3-8.1,7.1-14.7,12.9-20.6C71.9,27.8,84.4,20.2,98,14.2
	c20.3-9.1,41.3-15,64-14.1C177.6,0.7,190.2,4.2,204.6,12.7z"/>
<path class="st1" d="M89.7,33.5c4-2.6,7-4.7,10.1-6.4c19.7-10.9,40.7-18.2,63.5-18.7c33.5-0.8,58.3,14,74.5,42.2
	c11.7,20.3,14.9,42.5,13.2,65.5c-0.5,7.5-1.2,14.9-2.3,22.3c-0.7,5-3.2,9.1-8.2,11.4c-2.9,1.3-4.4,1-5.4-2.4
	c-4.8-16-11.2-31.3-19.8-45.8c-19-32.5-46.3-54.7-84.2-63.6c-11.8-2.8-23.9-4-36-4.3C93.7,33.8,92.3,33.7,89.7,33.5z"/>
<path class="st1" d="M107.6,199.2c0-0.8,1.2-1,1.5-0.2c1.2,2.7,0.4,3.4,0,5.7c-1.8,9.5-1.2,9,10.1,15.6c0.7,0.4,1.4,0.9,2,1.4
	c0.9,0.7,2.6,1.4,2.1,3.1c-0.4,1.2-1.5,1.6-2.6,2c-0.6,0.2-1.7,0.3-2.3,0.2c-13.3-2.2-25.1-7-32.8-18.6c-0.5-0.8-1.3-1.9-1.1-2.6
	c0.4-1.1,1.9-1,3-1c2.3-0.1,4.5,0.2,6.5,1.6c1.9,1.4,3.6,2.4,4.4-1.3c0.6-2.6,2.6-2.7,4.2-0.4c0.7,1,0.9,2.5,2.7,1.9
	c1.6-0.6,2-1.8,2.2-3.3c0.1-1.2,0-2.5,0.1-3.7C107.5,198.8,107.5,199.9,107.6,199.2z"/>
</svg>
